<svg xmlns="http://www.w3.org/2000/svg" xml:space="preserve" width="655.359" height="655.359" style="shape-rendering:geometricPrecision;text-rendering:geometricPrecision;image-rendering:optimizeQuality;fill-rule:evenodd;clip-rule:evenodd" viewBox="0 0 6.827 6.827"><defs><style>.fil1,.fil2{fill:#fffffe}.fil2{fill-rule:nonzero}</style></defs><g id="Layer_x0020_1"><rect width="6.827" height="6.827" rx=".853" ry=".853" style="fill:#3f51b5"/><path class="fil1" d="M4.522 1.753a.366.366 0 0 0-.03-.022.435.435 0 0 0-.081-.04c-.356-.132-.788.055-1.095.235a4.638 4.638 0 0 0-.734.544.231.231 0 0 0 .308.344c.128-.114.26-.223.4-.323l.295-.212-.135.338c-.051.13-.101.262-.143.396a4.46 4.46 0 0 0-.158.777c-.017.118-.034.237-.053.355-.012.075-.023.15-.04.224l-.003.017-.538.905a.295.295 0 0 0 .506.3l.56-.944a.294.294 0 0 0 .034-.082l.122-.517.253.602.11 1.092a.295.295 0 0 0 .32.265.295.295 0 0 0 .265-.32L4.571 4.55a.3.3 0 0 0-.022-.086l-.343-.818.026-.046a.371.371 0 0 0 .024-.049l.34-.857.112.175c.047.072.096.142.148.21.13.168.277.323.432.468.11.103.317.054.372-.085a.23.23 0 0 0-.056-.252 3.487 3.487 0 0 1-.382-.412 2.987 2.987 0 0 1-.228-.35l-.07-.124a6.393 6.393 0 0 0-.236-.402c-.009-.014-.02-.026-.03-.038a.896.896 0 0 0-.136-.131zM5.083 1.362l.003-.02a.448.448 0 0 0-.704-.44.448.448 0 0 0 .187.809l.019.003a.448.448 0 0 0 .495-.352z"/><g id="_215579840"><path id="_215580008" class="fil2" d="m2.987 3.408.042-.068-1.21-.765a.144.144 0 0 0-.199.045l-.073.117 1.444.923a.06.06 0 0 1 .005.003l.076-.12.002-.004-.067-.043.067.043a.144.144 0 0 0-.039-.195.08.08 0 0 0-.006-.004l-.02.034-.022.034zm-1.504-.571-.31.49a.144.144 0 0 0 .045.2l1.21.765a.144.144 0 0 0 .199-.045l.306-.484a.06.06 0 0 1-.005-.003l-1.445-.923z"/><path id="_215579576" class="fil2" d="m2.164 2.982.35.222a.12.12 0 0 0 .166-.038l.11-.174a.12.12 0 0 0-.037-.166.077.077 0 0 0-.004-.002l-.347-.22a.12.12 0 0 0-.165.038l-.11.174a.12.12 0 0 0 .037.166zm.402.065-.283-.18.067-.106.284.18-.068.106z"/></g></g></svg>